<?xml version="1.0" standalone="no"?>
<!DOCTYPE svg PUBLIC "-//W3C//DTD SVG 20010904//EN"
 "http://www.w3.org/TR/2001/REC-SVG-20010904/DTD/svg10.dtd">
<svg version="1.0" xmlns="http://www.w3.org/2000/svg"
 width="576.000000pt" height="576.000000pt" viewBox="0 0 576.000000 576.000000"
 preserveAspectRatio="xMidYMid meet">
<metadata>
Created by potrace 1.14, written by Peter Selinger 2001-2017
</metadata>
<g transform="translate(0.000000,576.000000) scale(0.100000,-0.100000)"
fill="#000000" stroke="none">
<path d="M3589 5116 c-2 -2 -22 -6 -44 -9 -234 -31 -469 -206 -581 -432 -31
-65 -64 -158 -66 -192 -2 -15 -17 -20 -87 -28 -47 -4 -124 -16 -211 -31 -21
-4 -193 -44 -252 -58 -36 -9 -224 -69 -233 -75 -5 -3 -14 -6 -20 -7 -20 -4
-193 -77 -275 -116 -190 -91 -428 -238 -575 -355 -6 -4 -44 -35 -85 -68 -69
-55 -322 -301 -380 -370 -426 -505 -679 -1076 -755 -1700 -4 -27 -8 -61 -11
-75 -2 -14 -6 -108 -9 -210 -5 -218 4 -271 66 -398 76 -158 221 -275 409 -332
63 -19 101 -20 1595 -17 l1530 2 45 21 c60 28 130 98 160 159 34 71 34 198 0
269 -30 62 -93 125 -155 156 l-50 25 -487 3 c-269 2 -488 5 -488 9 0 3 90 96
201 206 243 243 290 307 339 462 25 80 34 238 18 325 -65 361 -369 607 -736
595 -201 -6 -341 -71 -513 -237 -43 -40 -148 -140 -235 -223 -87 -82 -199
-189 -248 -236 -50 -48 -127 -121 -171 -163 -44 -41 -95 -81 -114 -87 -45 -15
-108 -4 -148 27 -40 30 -52 51 -59 104 -10 72 7 98 167 251 83 79 172 164 198
189 26 25 116 110 200 190 85 80 181 171 215 203 159 152 337 248 534 288 87
17 295 19 382 3 328 -62 601 -266 748 -559 45 -90 87 -220 101 -310 19 -122 3
-334 -34 -460 -9 -29 1116 -1149 1190 -1185 l50 -25 405 0 c391 0 407 1 450
21 60 28 130 98 160 159 34 71 34 198 0 269 -30 62 -93 125 -155 156 -49 25
-55 25 -346 28 l-295 3 -463 463 -463 463 69 38 c37 21 93 51 123 68 30 17 67
38 82 49 14 10 28 18 31 18 3 0 32 15 64 34 32 19 175 100 318 181 143 81 280
159 305 174 25 14 56 32 70 39 14 7 34 18 45 25 17 10 71 41 245 140 19 11 55
31 80 45 146 81 254 217 301 377 15 53 19 223 7 287 -21 107 -84 217 -175 305
-103 101 -119 108 -646 270 -243 74 -445 140 -448 146 -4 5 -10 31 -13 58 -19
144 -102 302 -221 425 -102 105 -260 189 -410 219 -37 8 -240 17 -246 11z
m183 -575 c48 -21 103 -72 125 -119 27 -56 24 -155 -5 -213 -43 -83 -125 -129
-223 -125 -99 3 -187 69 -214 160 -19 62 -19 90 -1 149 22 72 91 140 163 160
35 10 119 3 155 -12z"/>
</g>
</svg>
